<?xml version="1.0" standalone="no"?>
<!DOCTYPE svg PUBLIC "-//W3C//DTD SVG 20010904//EN"
 "http://www.w3.org/TR/2001/REC-SVG-20010904/DTD/svg10.dtd">
<svg version="1.0" xmlns="http://www.w3.org/2000/svg"
 width="2100.000000pt" height="2100.000000pt" viewBox="0 0 2100.000000 2100.000000"
 preserveAspectRatio="xMidYMid meet">

<g transform="translate(0.000000,2100.000000) scale(0.100000,-0.100000)"
fill="#000000" stroke="none">
<path d="M9995 20990 c-497 -25 -952 -80 -1470 -176 -979 -181 -2004 -539
-2895 -1009 -961 -507 -1794 -1121 -2554 -1881 -762 -762 -1375 -1595 -1884
-2559 -93 -177 -274 -555 -337 -705 -491 -1163 -747 -2236 -837 -3500 -16
-230 -16 -1090 0 -1320 44 -618 135 -1231 263 -1769 l31 -133 73 -97 c109
-143 379 -465 560 -668 198 -222 735 -760 955 -958 1915 -1719 4235 -2807
6765 -3174 295 -43 940 -109 952 -97 2 2 -594 2111 -1326 4685 l-1331 4681 0
1408 0 1407 30 630 c16 347 33 663 36 703 l6 72 3444 0 c2765 0 3444 -2 3444
-13 0 -7 16 -332 35 -722 l35 -710 0 -1335 0 -1334 -1345 -4732 c-740 -2602
-1345 -4734 -1345 -4737 0 -12 95 -8 326 13 2784 246 5354 1362 7451 3235 229
205 773 749 978 978 181 203 451 526 560 668 l73 97 31 133 c128 536 219 1153
263 1769 16 230 16 1090 0 1320 -84 1181 -332 2268 -750 3290 -95 231 -109
263 -219 500 -683 1463 -1714 2766 -2993 3781 -637 506 -1340 941 -2070 1282
-237 110 -269 124 -500 219 -1016 416 -2115 667 -3275 749 -200 14 -967 20
-1180 9z"/>
<path d="M9575 16373 c-779 -22 -1289 -99 -1584 -239 -311 -147 -556 -411
-717 -776 -62 -138 -134 -361 -179 -548 l-37 -155 1701 -7310 c936 -4021 1705
-7317 1708 -7325 3 -8 14 23 25 70 24 104 3028 13011 3238 13910 82 355 150
657 150 673 0 69 -88 390 -154 561 -100 259 -208 432 -370 591 -122 121 -228
197 -381 273 -280 139 -564 207 -1030 247 -183 15 -645 35 -833 35 l-102 0 3
-2842 c3 -3020 2 -2908 47 -3113 59 -272 206 -475 431 -599 112 -62 273 -107
434 -121 39 -3 87 -8 108 -11 l37 -6 0 -54 0 -54 -1625 0 -1625 0 0 54 0 55
58 6 c164 17 291 38 365 61 340 108 549 358 612 732 39 232 39 227 42 3100 l4
2792 -118 -2 c-65 -1 -158 -3 -208 -5z"/>
</g>
</svg>
